<svg xmlns="http://www.w3.org/2000/svg" viewBox="0 0 1200 820" role="img" aria-label="Generated illustration of Copenhagen">
  <defs>
    <linearGradient id="sky" x1="0" y1="0" x2="0" y2="1">
      <stop offset="0" stop-color="#f7faf9"/>
      <stop offset="1" stop-color="#e7f0ec"/>
    </linearGradient>
    <linearGradient id="water" x1="0" y1="0" x2="1" y2="0">
      <stop offset="0" stop-color="#0b5d4a" stop-opacity="0.16"/>
      <stop offset="1" stop-color="#0a2a4a" stop-opacity="0.14"/>
    </linearGradient>
    <filter id="soft" x="-20%" y="-20%" width="140%" height="140%">
      <feGaussianBlur stdDeviation="8" />
    </filter>
  </defs>

  <rect width="1200" height="820" rx="48" fill="url(#sky)"/>

  <!-- soft glow -->
  <circle cx="940" cy="170" r="140" fill="#0b5d4a" opacity="0.12" filter="url(#soft)"/>
  <circle cx="1030" cy="230" r="160" fill="#0a2a4a" opacity="0.10" filter="url(#soft)"/>

  <!-- horizon line -->
  <path d="M120 498 H1080" stroke="#c9d7d1" stroke-width="2" stroke-linecap="round" opacity="0.9"/>

  <!-- stylized Nyhavn-ish facades -->
  <g fill="none" stroke="#24302b" stroke-opacity="0.60" stroke-width="2" stroke-linejoin="round">
    <path d="M220 498 V360 h90 v138" />
    <path d="M315 498 V330 h80 v168" />
    <path d="M400 498 V350 h98 v148" />
    <path d="M505 498 V318 h86 v180" />
    <path d="M595 498 V346 h110 v152" />
    <path d="M710 498 V334 h84 v164" />
    <path d="M798 498 V360 h90 v138" />
  </g>

  <!-- spires -->
  <g stroke="#24302b" stroke-opacity="0.55" stroke-width="2" stroke-linecap="round">
    <path d="M355 330 L355 285" />
    <path d="M355 285 L343 300" />
    <path d="M355 285 L367 300" />
    <path d="M548 318 L548 270" />
    <path d="M548 270 L536 286" />
    <path d="M548 270 L560 286" />
  </g>

  <!-- water -->
  <path d="M120 498 C240 520 340 520 460 498 C580 476 700 476 820 498 C940 520 1020 520 1080 506 V820 H120 Z" fill="url(#water)"/>
  <g fill="none" stroke="#0b5d4a" stroke-opacity="0.16" stroke-width="3" stroke-linecap="round">
    <path d="M160 570 C260 592 340 592 440 570" />
    <path d="M470 600 C590 625 710 625 830 600" />
    <path d="M250 660 C380 690 510 690 640 660" />
    <path d="M720 710 C850 742 980 742 1110 710" />
  </g>

  <!-- bikes (tiny) -->
  <g stroke="#24302b" stroke-opacity="0.55" stroke-width="2" fill="none" stroke-linecap="round" stroke-linejoin="round">
    <circle cx="240" cy="520" r="10"/>
    <circle cx="280" cy="520" r="10"/>
    <path d="M240 520 L255 498 L270 520 L255 520 L250 508" />
    <path d="M255 498 L270 498" />
  </g>
</svg>

